<svg xmlns="http://www.w3.org/2000/svg" viewBox="0 -36 512 512" fill-opacity=".6" width="67" height="58"><path d="M143 10c0 5.523-4.477 10-10 10s-10-4.477-10-10 4.477-10 10-10 10 4.477 10 10zm0 0"/><path d="M379 0c-56.805 0-98.48 38.074-122.977 88.574-11.726-24.261-35.105-60.894-74.91-78.547-5.047-2.238-10.957.04-13.195 5.086-2.238 5.051.039 10.957 5.086 13.196 52.66 23.355 73.226 88.941 73.426 89.59a9.991 9.991 0 009.558 7.093H256c4.398 0 8.281-2.875 9.566-7.082C277.426 78.84 315.988 20 379 20c63.363 0 113 53.379 113 121.52 0 33.542-12.52 64.074-40.484 98.48H371.62l-30.98-112.652a10.001 10.001 0 00-9.375-7.344c-4.371-.137-8.36 2.656-9.754 6.836L271 278.379l-20.512-61.54A10.002 10.002 0 00241 210h-52.793l-27.719-83.16c-1.394-4.18-5.336-6.996-9.754-6.836a9.998 9.998 0 00-9.375 7.344L110.38 240H60.484C32.52 205.594 20 175.063 20 141.52c0-51.547 28.457-96.23 72.496-113.836 5.129-2.051 7.625-7.871 5.574-13-2.047-5.13-7.867-7.625-12.996-5.57C34.48 29.335 0 81.257 0 141.52c0 33.67 11.293 65.367 35.281 98.48H10c-5.523 0-10 4.477-10 10s4.477 10 10 10h41.14c44.422 51.664 115.176 104.82 198.274 177.527 1.887 1.649 4.234 2.473 6.586 2.473s4.7-.824 6.586-2.473c83-72.62 153.879-125.89 198.273-177.527H502c5.523 0 10-4.477 10-10s-4.477-10-10-10h-25.281C500.707 206.883 512 175.191 512 141.52 512 64.914 455.816 0 379 0zM256 416.73C183.187 353.406 120.523 305.148 78.059 260H118c4.5 0 8.45-3.008 9.64-7.348l24.278-88.277 19.594 58.785A10.002 10.002 0 00181 230h52.793l27.719 83.16a9.998 9.998 0 0018.972 0l49.598-148.785 24.273 88.277a9.992 9.992 0 009.645 7.336h69.941C391.492 305.121 328.715 353.492 256 416.73zm0 0"/></svg>