<svg xmlns="http://www.w3.org/2000/svg" viewBox="0 0 512.761 512.761" width="55" height="72" fill-opacity=".6"><path d="M241.427 212.495c.898-.009 1.793.005 2.517.016 5.708.097 16.36.271 18.916-10.121a64.12 64.12 0 001.846-15.301c0-16.051-5.978-31.395-16.833-43.204-9.215-10.025-21.254-16.774-34.432-19.415V7.5a7.5 7.5 0 00-7.5-7.5h-82.96a7.5 7.5 0 00-7.5 7.5v44.943a7.5 7.5 0 0015 0V15h67.96v115.953a7.5 7.5 0 006.828 7.47c12.097 1.088 23.305 6.634 31.56 15.615a48.714 48.714 0 0112.877 33.053 49.19 49.19 0 01-1.099 10.362c-1.218.115-3.072.084-4.416.062-5.521-.093-13.073-.215-17.964 5.541-3.96 4.663-3.214 11.616-2.425 18.978.249 2.322.636 5.93.542 7.917a48.836 48.836 0 01-23.517 6.018 48.894 48.894 0 01-31.525-11.539 7.5 7.5 0 00-9.684.001 48.89 48.89 0 01-31.524 11.539c-26.951 0-48.878-21.927-48.878-48.878a48.714 48.714 0 0112.877-33.053c8.255-8.981 19.463-14.526 31.56-15.615a7.5 7.5 0 006.828-7.47V82.098a7.5 7.5 0 00-15 0v42.373c-13.179 2.641-25.216 9.39-34.432 19.415-10.854 11.81-16.833 27.153-16.833 43.204 0 13.344 4.119 25.74 11.143 35.998-6.831 7.351-10.765 17.081-10.765 27.214v17.321a39.62 39.62 0 008.842 25.019 63.491 63.491 0 00-9.221 33.029c0 16.051 5.979 31.394 16.833 43.204 9.216 10.025 21.253 16.774 34.432 19.415v116.972a7.5 7.5 0 007.5 7.5h82.96a7.5 7.5 0 007.5-7.5v-80.289a7.5 7.5 0 00-7.5-7.5 7.5 7.5 0 00-7.5 7.5v72.789h-67.96V381.808a7.5 7.5 0 00-6.828-7.47c-12.097-1.088-23.305-6.634-31.56-15.615a48.712 48.712 0 01-12.877-33.052c0-26.952 21.927-48.878 48.878-48.878a48.891 48.891 0 0131.524 11.539 7.5 7.5 0 009.684.001 48.898 48.898 0 0131.525-11.539c26.951 0 48.878 21.927 48.878 48.878a48.71 48.71 0 01-12.877 33.052c-8.255 8.981-19.463 14.526-31.56 15.615a7.5 7.5 0 00-6.828 7.47v13.51a7.5 7.5 0 007.5 7.5 7.5 7.5 0 007.5-7.5v-7.028c13.178-2.641 25.217-9.39 34.432-19.415 10.855-11.81 16.833-27.153 16.833-43.204a63.483 63.483 0 00-7.62-30.226c7.24-7.443 11.317-17.351 11.317-27.821v-17.321c.002-17.148-11.077-32.307-26.974-37.809zm-40.599 49.298a63.926 63.926 0 00-36.367 11.373 63.922 63.922 0 00-36.366-11.373c-17.53 0-33.429 7.101-44.982 18.573a24.698 24.698 0 01-3.517-12.742v-17.321c0-5.798 2.073-11.389 5.714-15.825 11.333 10.242 26.342 16.49 42.785 16.49a63.921 63.921 0 0036.366-11.374 63.929 63.929 0 0036.367 11.374 63.8 63.8 0 0032.835-9.075c4.844-2.908 5.803-8.299 5.646-14.057 8.429 4.117 14.094 12.781 14.094 22.467v17.321a24.81 24.81 0 01-5.218 15.227c-11.697-12.924-28.594-21.058-47.357-21.058zm189.04 85.611l-20.125-11.007-11.007-20.125a7.5 7.5 0 00-13.16 0l-11.007 20.125-20.124 11.006a7.5 7.5 0 000 13.16l20.124 11.007 11.007 20.125a7.5 7.5 0 0013.16 0l11.007-20.125 20.125-11.007a7.5 7.5 0 000-13.159zm-29.25 12.061a7.503 7.503 0 00-2.982 2.981l-5.48 10.021-5.48-10.021a7.5 7.5 0 00-2.981-2.981l-10.021-5.481 10.021-5.48a7.494 7.494 0 002.981-2.981l5.48-10.021 5.48 10.021a7.497 7.497 0 002.982 2.981l10.021 5.48-10.021 5.481zm-39.025-158.664l11.007-20.125 20.124-11.006a7.5 7.5 0 000-13.16L332.6 145.503l-11.007-20.124a7.501 7.501 0 00-13.16 0l-11.008 20.125-20.124 11.007a7.5 7.5 0 000 13.16l20.124 11.007 11.008 20.125a7.5 7.5 0 0013.16-.002zm-12.062-29.25a7.5 7.5 0 00-2.981-2.981l-10.021-5.48 10.021-5.481a7.494 7.494 0 002.981-2.981l5.482-10.021 5.48 10.021a7.494 7.494 0 002.981 2.981l10.02 5.481-10.02 5.48a7.49 7.49 0 00-2.981 2.982l-5.48 10.021-5.482-10.022zm135.112 45.018l-20.125-11.007-11.007-20.124a7.5 7.5 0 00-13.16 0l-11.007 20.124-20.125 11.007a7.5 7.5 0 000 13.16l20.125 11.007 11.007 20.125a7.5 7.5 0 0013.16 0l11.007-20.125 20.125-11.007a7.5 7.5 0 000-13.16zm-29.25 12.061a7.494 7.494 0 00-2.981 2.981l-5.481 10.021-5.48-10.021a7.497 7.497 0 00-2.982-2.981l-10.021-5.48 10.021-5.481a7.499 7.499 0 002.982-2.982l5.48-10.02 5.481 10.02a7.497 7.497 0 002.981 2.982l10.021 5.481-10.021 5.48z"/></svg>