<svg width="130" height="49" fill="none" xmlns="http://www.w3.org/2000/svg"><g clip-path="url(#clip0)"><path d="M9.917 13.043H3.343v23.11h6.574v-23.11zm18.658 23.111V19.976L16.315.598h8.173l7.64 12.444L39.768.598h8.174L35.504 19.976v16.178h-6.93zm28.252-23.823c3.909 0 6.93 1.067 9.417 3.2 2.665 2.311 3.909 5.334 3.909 9.067 0 3.733-1.244 6.756-3.91 9.067-2.309 2.133-5.507 3.2-9.416 3.2-3.91 0-6.93-1.067-9.418-3.2-2.665-2.311-3.909-5.334-3.909-9.067 0-3.733 1.244-6.756 3.91-9.067 2.487-2.133 5.507-3.2 9.417-3.2zm-4.62 16.89c1.243 1.244 2.843 1.955 4.62 1.955 1.776 0 3.376-.711 4.62-1.956 1.243-1.244 1.954-2.844 1.954-4.622s-.71-3.378-1.955-4.622c-1.243-1.245-2.843-1.956-4.62-1.956-1.776 0-3.376.711-4.62 1.956-1.243 1.244-1.954 2.844-1.954 4.622s.71 3.378 1.955 4.622zm40.512-13.157v-3.022h6.574v25.245c0 .71-.355 1.6-.71 2.844-.356 1.245-1.067 2.311-1.777 3.2-2.31 2.667-5.509 4.089-9.595 4.089-3.376 0-6.042-.889-8.352-2.667-2.31-1.778-3.553-4.089-4.086-7.11h7.107c.178 1.244.889 2.31 1.777 3.021.888.712 2.132 1.067 3.554 1.067 1.066 0 1.954-.178 2.665-.533.71-.356 1.421-.89 1.777-1.245.355-.355.71-1.066.888-1.778.178-.71.356-1.244.356-1.6v-4.8c-1.6 2.49-4.087 3.912-7.108 3.912-3.376 0-6.219-1.245-8.351-3.556-2.132-2.311-3.198-5.333-3.198-8.711s1.066-6.222 3.198-8.711c2.132-2.489 4.797-3.556 8.351-3.556 2.843.178 5.153 1.422 6.93 3.911zm-1.066 3.912c-1.244-1.245-2.666-1.778-4.62-1.778-1.777 0-3.376.71-4.62 1.777-1.244 1.245-1.777 2.845-1.777 4.623 0 1.777.533 3.378 1.777 4.622 1.244 1.244 2.665 1.956 4.62 1.956 1.777 0 3.376-.712 4.62-1.956 1.244-1.244 1.777-2.845 1.777-4.622 0-1.778-.711-3.378-1.777-4.622zm31.45-3.911v-3.023h6.575v23.111h-6.575v-3.022c-1.777 2.49-4.086 3.734-7.107 3.734-3.554 0-6.397-1.245-8.529-3.556-2.132-2.311-3.198-5.333-3.198-8.711 0-3.556 1.066-6.4 3.198-8.711 2.132-2.311 4.975-3.556 8.174-3.556 3.376 0 5.863 1.245 7.462 3.734zm-1.243 3.91c-1.244-1.244-2.666-1.777-4.62-1.777-1.777 0-3.376.711-4.62 1.778-1.244 1.244-1.777 2.844-1.777 4.622s.533 3.378 1.777 4.622c1.244 1.245 2.665 1.956 4.62 1.956 1.777 0 3.376-.711 4.62-1.956 1.243-1.244 1.776-2.844 1.776-4.622s-.533-3.378-1.776-4.622z" fill="#000"/><path d="M11.872 1.487c-.71-.534-1.422-.89-2.488-.89-.177 0-.533 0-.888.179-.178 0-.533.177-.71.355a2.457 2.457 0 00-.712.534c-.177 0-.355.177-.533.355-.177-.178-.355-.355-.533-.355l-.533-.534C5.12.953 4.942.776 4.587.776 4.23.598 4.054.598 3.698.598c-1.066 0-1.777.355-2.31.889C.855 2.02.5 2.73.5 3.797c0 .356 0 .534.178.89.177.355.177.533.355.889.178.177.355.355.533.71.178.179.355.356.355.534l.178.178 4.265 4.089s.177.178.355.178.178 0 .355-.178l4.087-4.267c1.066-1.067 1.6-2.133 1.6-3.022 0-1.067-.356-1.778-.89-2.311z" fill="red"/></g><defs><clipPath id="clip0"><path fill="#fff" transform="translate(.5 .598)" d="M0 0h129v48H0z"/></clipPath></defs></svg>