<svg version="1" xmlns="http://www.w3.org/2000/svg" width="933.333" height="933.333" viewBox="0 0 700.000000 700.000000"><path d="M327 .6c-1.9.2-8.4.9-14.5 1.5-56.9 5.6-117.8 28.7-165.1 62.5-30 21.4-61.1 52.5-82.4 82.3C30.2 195.7 9.7 249.6 1.8 313c-1.7 14-1.7 60.1 0 74.5 3 24 8.9 51.3 15.6 71.7 37.4 113.9 131 201 247.3 230.2 30 7.5 51.6 10.1 85.3 10.1 33.9 0 56-2.7 87.2-10.6 97.2-24.5 180.9-92.1 225.8-182.4 19.1-38.4 29.6-74.1 35.2-119.5 1.7-14 1.7-60.1 0-74.5-9.9-81.2-42.2-149.5-97.7-206.4-57-58.5-126-92.7-209-103.7C381.1 1 334.7-.3 327 .6zm61 190.8c24.7 4.8 41.1 12.2 56.7 25.4 11.8 10 23.1 29.1 27.5 46.8 1.8 7.3 2.2 11.6 2.2 24.4-.1 13.4-.4 16.8-2.6 25.1-8.2 30.5-29.1 52.5-60.5 63.9l-6.3 2.3 1.9 3.1C414 394.3 477 503 477 503.4c0 .4-19.2.5-42.7.4l-42.8-.3-32.5-59.2-32.5-59.3H307v119h-76V188.9l74.3.4c64 .4 75.4.7 82.7 2.1z"/><path d="M307.7 252.7c-.4.3-.7 18.1-.7 39.5v38.9l30.8-.3c26.9-.3 31.3-.6 35.7-2.2 10.7-4 17.4-10.7 21.6-21.5 3.1-8 3.1-23.2 0-31.3-4.7-12.3-16-20.6-30.7-22.8-7.7-1.1-55.7-1.4-56.7-.3z"/></svg>