<?xml version="1.0" standalone="no"?>
<!DOCTYPE svg PUBLIC "-//W3C//DTD SVG 20010904//EN"
 "http://www.w3.org/TR/2001/REC-SVG-20010904/DTD/svg10.dtd">
<svg version="1.0" xmlns="http://www.w3.org/2000/svg"
 width="90.000000pt" height="90.000000pt" viewBox="0 0 90.000000 90.000000"
 preserveAspectRatio="xMidYMid meet">
<metadata>
Created by potrace 1.11, written by Peter Selinger 2001-2013
</metadata>
<g transform="translate(0.000000,90.000000) scale(0.100000,-0.100000)"
fill="#000000" stroke="none">
<path d="M844 629 c-32 -20 -55 -22 -199 -18 -83 2 -166 -16 -212 -46 -61 -40
-98 -141 -73 -200 7 -18 9 -17 23 15 8 19 13 39 10 44 -4 5 -1 6 4 3 18 -11
48 32 46 66 -1 21 0 24 4 10 5 -28 8 -28 63 -2 24 12 80 28 124 35 45 8 90 17
101 20 18 4 18 4 3 -6 -10 -6 -51 -17 -92 -25 -41 -8 -90 -21 -108 -28 l-33
-14 45 -11 45 -11 -56 5 c-41 3 -59 1 -68 -10 -16 -19 -5 -24 52 -27 26 -2 47
-6 47 -11 0 -10 -45 -10 -91 1 -33 8 -38 6 -54 -21 -9 -16 -14 -32 -10 -36 4
-4 51 -7 105 -7 54 0 95 -3 91 -8 -13 -13 -134 -20 -173 -9 -34 9 -36 8 -41
-14 -9 -51 90 -70 181 -36 50 19 124 66 155 98 43 46 107 132 107 145 0 8 6
23 13 34 18 26 38 85 29 84 -4 0 -21 -9 -38 -20z m-234 -205 c0 -8 -19 -13
-24 -6 -3 5 1 9 9 9 8 0 15 -2 15 -3z"/>
<path d="M20 506 c0 -2 8 -24 19 -48 34 -80 106 -145 185 -166 43 -12 86 -1
86 22 0 12 -10 14 -49 9 -26 -3 -51 -2 -54 3 -3 5 15 9 38 9 50 1 63 8 46 29
-8 9 -25 13 -49 11 -32 -4 -33 -3 -8 3 38 9 31 28 -9 25 -25 -2 -26 0 -10 6
22 10 19 11 -45 30 l-35 11 40 -6 c21 -3 52 -12 67 -20 22 -11 28 -12 28 -2 0
12 12 -5 41 -59 7 -13 16 -23 21 -23 17 0 7 58 -15 91 -30 45 -81 61 -184 60
-46 -1 -84 3 -88 9 -6 10 -25 14 -25 6z"/>
</g>
</svg>
