<svg xmlns="http://www.w3.org/2000/svg" width="32" height="40"><path d="M25.78 37.17s.44-2.31-2.3-5.12a43.232 43.232 0 003.04-12.35S32 20.78 32 25.46a14.077 14.077 0 01-6.22 11.71zm-15.11-2.81S7 24.18 7 19.95a20.618 20.618 0 01.63-5.12h16.73a21.185 21.185 0 01.63 5.13c0 4.16-3.66 14.4-3.66 14.4H10.67zm5.32-17.2a2.975 2.975 0 103.4 2.94 3.206 3.206 0 00-3.4-2.94zm-.74-13.15V0h1.33v3.91a18.216 18.216 0 017.47 9.82H7.93a18.067 18.067 0 017.32-9.72zM6.22 37.17A14.077 14.077 0 010 25.46c0-4.68 5.48-5.76 5.48-5.76a43.232 43.232 0 003.04 12.35c-2.74 2.81-2.3 5.12-2.3 5.12zm12.02.59l-1.11-.96-1.18 3.2-1.41-3.2-.96 1.66-1.41-3.01h7.63z" fill="#464646" fill-rule="evenodd"/></svg>